<svg id="Layer_1" data-name="Layer 1" xmlns="http://www.w3.org/2000/svg" viewBox="0 0 175.85 30"><defs><style>.cls-1{fill:#b30043;}</style></defs><path class="cls-1" d="M13.54,15.29C5.83,18.6,1.23,20.61,1.07,20.72A3,3,0,0,0,.14,22a2.56,2.56,0,0,0,1.57,3.25c.27.1,2.2.44,5.87,1.05l5.47.9,2.12,5.12c1.4,3.39,2.19,5.24,2.34,5.48a2.57,2.57,0,0,0,3.53.8,3.15,3.15,0,0,0,1-1.22C22.2,37,26.88,11,26.85,10.7a.86.86,0,0,0-.92-.69C25.83,10,20.25,12.4,13.54,15.29Z" transform="translate(0 -10)"/><path d="M36.71,11.45h6L47.28,39.6H42.86L42.06,34v.08H37l-.81,5.51h-4.1Zm4.82,18.82-2-13.92h-.08L37.55,30.27Z" transform="translate(0 -10)"/><path d="M49.42,11.45h4.42V22.91h4.74V11.45H63V39.6H58.58V26.93H53.84V39.6H49.42Z" transform="translate(0 -10)"/><path d="M66.3,11.45h4.43V35.58H78v4H66.3Z" transform="translate(0 -10)"/><path d="M80.14,11.45h4.42V39.6H80.14Z" transform="translate(0 -10)"/><path d="M95.18,38.17a7.58,7.58,0,0,1-1.65-5.25V31.31h4.18v1.93c0,1.83.77,2.74,2.29,2.74a2.15,2.15,0,0,0,1.71-.66,3.26,3.26,0,0,0,.59-2.16,5.89,5.89,0,0,0-.81-3.11,14.81,14.81,0,0,0-3-3.24,17.61,17.61,0,0,1-3.82-4.36A8.85,8.85,0,0,1,93.61,18a7.34,7.34,0,0,1,1.69-5.17A6.35,6.35,0,0,1,100.21,11a6.09,6.09,0,0,1,4.8,1.83,7.63,7.63,0,0,1,1.63,5.25v1.17h-4.18V17.84a3.21,3.21,0,0,0-.57-2.11,2,2,0,0,0-1.64-.66c-1.48,0-2.22.9-2.22,2.69a5.34,5.34,0,0,0,.83,2.86,16.06,16.06,0,0,0,3,3.21,16.61,16.61,0,0,1,3.83,4.39,9.78,9.78,0,0,1,1,4.62A7.53,7.53,0,0,1,105,38.15,6.44,6.44,0,0,1,100,40,6.21,6.21,0,0,1,95.18,38.17Z" transform="translate(0 -10)"/><path d="M110.66,38.15a7.38,7.38,0,0,1-1.73-5.23V18.12a7.36,7.36,0,0,1,1.73-5.22,7.62,7.62,0,0,1,10,0,7.35,7.35,0,0,1,1.72,5.22v14.8a7.38,7.38,0,0,1-1.72,5.23,7.65,7.65,0,0,1-10,0Zm7.28-4.95V17.84c0-1.85-.76-2.77-2.29-2.77s-2.29.92-2.29,2.77V33.2c0,1.85.76,2.78,2.29,2.78S117.94,35.05,117.94,33.2Z" transform="translate(0 -10)"/><path d="M126.22,38.17a7.58,7.58,0,0,1-1.64-5.25V31.31h4.18v1.93c0,1.83.76,2.74,2.29,2.74a2.16,2.16,0,0,0,1.71-.66,3.26,3.26,0,0,0,.58-2.16,6,6,0,0,0-.8-3.11,14.9,14.9,0,0,0-3-3.24,18,18,0,0,1-3.82-4.36A9,9,0,0,1,124.66,18a7.38,7.38,0,0,1,1.68-5.17A6.37,6.37,0,0,1,131.25,11a6.11,6.11,0,0,1,4.81,1.83,7.67,7.67,0,0,1,1.62,5.25v1.17H133.5V17.84a3.21,3.21,0,0,0-.56-2.11,2.06,2.06,0,0,0-1.65-.66c-1.47,0-2.21.9-2.21,2.69a5.33,5.33,0,0,0,.82,2.86,15.87,15.87,0,0,0,3,3.21,16.54,16.54,0,0,1,3.82,4.39,9.66,9.66,0,0,1,1.05,4.62,7.53,7.53,0,0,1-1.71,5.31,6.45,6.45,0,0,1-5,1.85A6.22,6.22,0,0,1,126.22,38.17Z" transform="translate(0 -10)"/><path d="M140.3,11.45h4.42V39.6H140.3Z" transform="translate(0 -10)"/><path d="M151.44,11.45h6L162,39.6h-4.42l-.8-5.59v.08h-5L151,39.6h-4.11Zm4.82,18.82-2-13.92h-.08l-1.93,13.92Z" transform="translate(0 -10)"/><path d="M164.15,11.45h4.42V35.58h7.28v4h-11.7Z" transform="translate(0 -10)"/></svg>