<svg id="Layer_1" data-name="Layer 1" xmlns="http://www.w3.org/2000/svg" viewBox="0 0 1600 1084"><defs><style>.cls-1{fill:#b30043;}.cls-2{fill:#fff;}</style></defs><rect class="cls-1" width="1600" height="1084"/><path class="cls-2" d="M335.3,574.78h41.38l31.67,194.44H377.8l-5.56-38.61v.55H337.52L332,769.22H303.63Zm33.34,130L355,608.67h-.56l-13.32,96.1Z"/><path class="cls-2" d="M423.08,574.78h30.55v79.16h32.78V574.78H517V769.22H486.41V681.73H453.63v87.49H423.08Z"/><path class="cls-2" d="M539.73,574.78h30.56V741.44h50.27v27.78H539.73Z"/><path class="cls-2" d="M635.29,574.78h30.55V769.22H635.29Z"/><path class="cls-2" d="M739.17,759.36q-11.4-12.65-11.38-36.26V712h28.89v13.34q0,18.88,15.82,18.89,7.79,0,11.81-4.58t4-14.86a41.31,41.31,0,0,0-5.55-21.53q-5.56-9.32-20.56-22.36-18.88-16.67-26.4-30.14a61.56,61.56,0,0,1-7.49-30.42q0-23,11.67-35.69T773.89,572q21.95,0,33.2,12.64t11.24,36.24v8.06H789.45v-10q0-10-3.89-14.58t-11.39-4.58q-15.27,0-15.28,18.61a36.69,36.69,0,0,0,5.7,19.72q5.7,9.17,20.69,22.22,19.17,16.67,26.4,30.28t7.22,31.94q0,23.91-11.81,36.66T772.78,772Q750.57,772,739.17,759.36Z"/><path class="cls-2" d="M846.11,759.21q-11.94-12.75-11.94-36.11V620.88q0-23.32,11.94-36.1T880.55,572q22.5,0,34.45,12.78t11.94,36.1V723.1q0,23.35-11.94,36.11T880.55,772Q858.07,772,846.11,759.21Zm50.28-34.16V618.94q0-19.16-15.84-19.16t-15.83,19.16V725.05q0,19.17,15.83,19.17T896.39,725.05Z"/><path class="cls-2" d="M953.6,759.36q-11.39-12.65-11.38-36.26V712h28.89v13.34q0,18.88,15.82,18.89,7.79,0,11.82-4.58t4-14.86a41.21,41.21,0,0,0-5.55-21.53q-5.57-9.32-20.56-22.36-18.88-16.67-26.39-30.14a61.46,61.46,0,0,1-7.5-30.42q0-23,11.67-35.69T988.32,572q21.95,0,33.2,12.64t11.25,36.24v8.06h-28.88v-10q0-10-3.9-14.58t-11.38-4.58q-15.29,0-15.28,18.61A36.68,36.68,0,0,0,979,638.11q5.7,9.17,20.7,22.22,19.15,16.67,26.39,30.28t7.22,31.94q0,23.91-11.81,36.66T987.22,772Q965,772,953.6,759.36Z"/><path class="cls-2" d="M1050.83,574.78h30.55V769.22h-30.55Z"/><path class="cls-2" d="M1127.76,574.78h41.38l31.67,194.44h-30.55l-5.56-38.61v.55H1130l-5.55,38.06h-28.34Zm33.34,130-13.62-96.1h-.56l-13.32,96.1Z"/><path class="cls-2" d="M1215.54,574.78h30.55V741.44h50.28v27.78h-80.83Z"/><path class="cls-2" d="M802.61,247.53C716.44,284.55,665,307,663.22,308.3c-3.83,2.66-8.85,9.46-10.37,13.9a28.6,28.6,0,0,0,17.55,36.35c3.08,1.06,24.62,4.94,65.61,11.65l61.11,10.08,23.65,57.24c15.63,37.86,24.48,58.56,26.14,61.2a28.72,28.72,0,0,0,39.45,8.92c4.21-2.58,9.57-9.05,11.33-13.63,1.62-4.13,53.95-294.79,53.61-297.71-.51-4.51-5.71-8.41-10.26-7.77C940,188.72,877.61,215.24,802.61,247.53Z"/></svg>