<svg id="Layer_1" data-name="Layer 1" xmlns="http://www.w3.org/2000/svg" viewBox="0 0 220 37.53"><defs><style>.cls-1{fill:#b30043;}</style></defs><path class="cls-1" d="M16.94,12.85C7.29,17,1.54,19.5,1.33,19.65A4,4,0,0,0,.17,21.21a3.21,3.21,0,0,0,2,4.07c.34.12,2.76.55,7.34,1.3l6.85,1.13L19,34.12c1.75,4.24,2.75,6.56,2.93,6.85a3.22,3.22,0,0,0,4.42,1,3.82,3.82,0,0,0,1.27-1.52c.18-.47,6-33,6-33.34a1.09,1.09,0,0,0-1.15-.87C32.32,6.26,25.34,9.23,16.94,12.85Z" transform="translate(0 -6.23)"/><path d="M45.92,8h7.5l5.74,35.22H53.62l-1-7v.1H46.33l-1,6.89H40.19Zm6,23.55L49.49,14.18h-.1L47,31.59Z" transform="translate(0 -6.23)"/><path d="M61.82,8h5.54V22.38h5.93V8h5.54V43.26H73.29V27.42H67.36V43.26H61.82Z" transform="translate(0 -6.23)"/><path d="M83,8h5.54V38.23h9.1v5H83Z" transform="translate(0 -6.23)"/><path d="M100.26,8h5.53V43.26h-5.53Z" transform="translate(0 -6.23)"/><path d="M119.08,41.48Q117,39.19,117,34.91v-2h5.24v2.41q0,3.42,2.86,3.42a2.7,2.7,0,0,0,2.14-.82,4.05,4.05,0,0,0,.73-2.7,7.5,7.5,0,0,0-1-3.9,19.11,19.11,0,0,0-3.73-4,22.3,22.3,0,0,1-4.78-5.46,11.17,11.17,0,0,1-1.36-5.51,9.18,9.18,0,0,1,2.12-6.46,7.91,7.91,0,0,1,6.13-2.29,7.64,7.64,0,0,1,6,2.29c1.36,1.53,2,3.72,2,6.56v1.46h-5.23V16a4,4,0,0,0-.7-2.64,2.57,2.57,0,0,0-2.06-.83c-1.85,0-2.77,1.13-2.77,3.37a6.59,6.59,0,0,0,1,3.57,19.85,19.85,0,0,0,3.75,4A21,21,0,0,1,132.21,29a12.24,12.24,0,0,1,1.31,5.79c0,2.89-.72,5.1-2.14,6.64a8,8,0,0,1-6.22,2.32A7.78,7.78,0,0,1,119.08,41.48Z" transform="translate(0 -6.23)"/><path d="M138.45,41.45a9.17,9.17,0,0,1-2.17-6.54V16.39a9.16,9.16,0,0,1,2.17-6.53,9.54,9.54,0,0,1,12.47,0,9.16,9.16,0,0,1,2.17,6.53V34.91a9.17,9.17,0,0,1-2.17,6.54,9.54,9.54,0,0,1-12.47,0Zm9.1-6.19V16c0-2.31-1-3.47-2.87-3.47s-2.86,1.16-2.86,3.47V35.26c0,2.32,1,3.47,2.86,3.47S147.55,37.58,147.55,35.26Z" transform="translate(0 -6.23)"/><path d="M157.92,41.48q-2.07-2.29-2.07-6.57v-2h5.24v2.41q0,3.42,2.86,3.42a2.7,2.7,0,0,0,2.14-.82,4.05,4.05,0,0,0,.73-2.7,7.5,7.5,0,0,0-1-3.9,19.11,19.11,0,0,0-3.73-4,22.3,22.3,0,0,1-4.78-5.46A11.17,11.17,0,0,1,156,16.29a9.18,9.18,0,0,1,2.12-6.46,7.91,7.91,0,0,1,6.13-2.29,7.64,7.64,0,0,1,6,2.29c1.36,1.53,2,3.72,2,6.56v1.46H167V16a4,4,0,0,0-.7-2.64,2.57,2.57,0,0,0-2.06-.83c-1.85,0-2.77,1.13-2.77,3.37a6.59,6.59,0,0,0,1,3.57,19.85,19.85,0,0,0,3.75,4A21,21,0,0,1,171.05,29a12.24,12.24,0,0,1,1.31,5.79c0,2.89-.72,5.1-2.14,6.64A8,8,0,0,1,164,43.77,7.78,7.78,0,0,1,157.92,41.48Z" transform="translate(0 -6.23)"/><path d="M175.53,8h5.53V43.26h-5.53Z" transform="translate(0 -6.23)"/><path d="M189.46,8H197l5.73,35.22h-5.53l-1-7v.1h-6.29l-1,6.89h-5.13Zm6,23.55L193,14.18h-.1l-2.41,17.41Z" transform="translate(0 -6.23)"/><path d="M205.36,8h5.53V38.23H220v5H205.36Z" transform="translate(0 -6.23)"/></svg>