<svg id="Layer_1" data-name="Layer 1" xmlns="http://www.w3.org/2000/svg" viewBox="0 0 500 500"><defs><style>.cls-1{fill:#b30043;}.cls-2{fill:#fff;}</style></defs><rect class="cls-1" width="500" height="500"/><path class="cls-2" d="M251.31,147.3c-86.18,37-137.57,59.45-139.4,60.77-3.82,2.66-8.84,9.46-10.37,13.89a28.6,28.6,0,0,0,17.56,36.35c3.08,1.07,24.62,4.95,65.6,11.66L245.81,280l23.65,57.24c15.64,37.87,24.49,58.57,26.15,61.21a28.73,28.73,0,0,0,39.45,8.92c4.2-2.58,9.57-9.05,11.32-13.63C348,389.64,400.33,99,400,96.07c-.52-4.51-5.72-8.41-10.27-7.77C388.64,88.49,326.31,115,251.31,147.3Z"/></svg>